<?xml version="1.0" encoding="utf-8" standalone="no"?>
<!DOCTYPE svg PUBLIC "-//W3C//DTD SVG 1.1//EN" "http://www.w3.org/Graphics/SVG/1.1/DTD/svg11.dtd">
<svg version="1.1" width="841.7pt" height="595.2pt" viewBox="0 0 841.68 595.2" xmlns="http://www.w3.org/2000/svg">
  <defs />
  <g id="Výchozí">
    <path d="M498.1768,180.29048 L447.38303,268.70697 L515.1365,386.05942 L482.75223,404.75647 L404.23114,268.7539 L465.82285,161.5415 z" stroke="#000000" stroke-width="0.24" stroke-linecap="round" stroke-linejoin="round" fill="none" />
    <path d="M389.03412,483.72754 L389.03412,486.22443 L391.32117,486.22443 L391.32117,483.72754 z" stroke="#000000" stroke-width="0.24" stroke-linecap="round" stroke-linejoin="round" fill="none" />
    <path d="M380.34753,485.09137 C381.28473,485.09137 382.0121,484.73642 382.52966,484.02652 C383.04724,483.31665 383.30603,482.31473 383.30603,481.0208 C383.30603,479.7549 383.04724,478.77576 382.52966,478.08334 C382.0121,477.39093 381.28473,477.0447 380.34753,477.0447 C379.4103,477.0447 378.68295,477.39093 378.16537,478.08334 C377.64783,478.77576 377.38904,479.7549 377.38904,481.0208 C377.38904,482.31473 377.64783,483.31665 378.16537,484.02652 C378.68295,484.73642 379.4103,485.09137 380.34753,485.09137 z" stroke="#000000" stroke-width="0.24" stroke-linecap="round" stroke-linejoin="round" fill="none" />
    <path d="M380.34753,486.51816 C381.9072,486.51816 383.12766,486.03033 384.0089,485.05466 C384.89017,484.07898 385.33078,482.73087 385.33078,481.01035 C385.33078,479.32477 384.89017,478.00464 384.0089,477.04996 C383.12766,476.09528 381.9072,475.61792 380.34753,475.61792 C378.79486,475.61792 377.57614,476.09528 376.6914,477.04996 C375.80664,478.00464 375.3643,479.32477 375.3643,481.01035 C375.3643,482.73087 375.80664,484.07898 376.6914,485.05466 C377.57614,486.03033 378.79486,486.51816 380.34753,486.51816 z" stroke="#000000" stroke-width="0.24" stroke-linecap="round" stroke-linejoin="round" fill="none" />
    <path d="M369.61514,483.72754 L369.61514,486.22443 L371.90222,486.22443 L371.90222,483.72754 z" stroke="#000000" stroke-width="0.24" stroke-linecap="round" stroke-linejoin="round" fill="none" />
    <path d="M363.04776,476.96082 L363.04776,475.91168 L362.09305,475.91168 L361.14886,475.91168 L361.14886,486.22443 L362.10355,486.22443 L363.04776,486.22443 L363.04776,480.97888 C363.04776,479.72693 363.28555,478.81598 363.76114,478.24594 C364.23672,477.67593 365.0026,477.39093 366.0587,477.39093 L366.44687,477.41193 L366.44687,475.63892 L365.9328,475.61792 A3.5307314,3.5307314 0 0 0 363.04776,476.9608" stroke="#000000" stroke-width="0.24" stroke-linecap="round" stroke-linejoin="round" fill="none" />
    <path d="M354.94867,483.72754 L354.94867,486.22443 L357.2357,486.22443 L357.2357,483.72754 z" stroke="#000000" stroke-width="0.24" stroke-linecap="round" stroke-linejoin="round" fill="none" />
    <path d="M349.2297,478.6918 L351.19153,478.6918 C351.19153,477.7336 350.83316,476.98178 350.11636,476.43625 C349.39957,475.89072 348.41183,475.61792 347.1531,475.61792 C345.89444,475.61792 344.90842,475.8837 344.19513,476.41525 C343.48187,476.9468 343.1252,477.68118 343.1252,478.61838 C343.1252,479.35974 343.33112,479.94724 343.74286,480.3809 C344.1622,480.8145 344.84702,481.1607 345.7973,481.4195 L347.89355,481.986 C348.43167,482.13287 348.83002,482.31824 349.08856,482.54202 C349.35062,482.76587 349.48166,483.0386 349.48166,483.36035 C349.48166,483.91287 349.27194,484.3395 348.8525,484.64026 C348.4331,484.941 347.84238,485.09137 347.08035,485.09137 C346.35327,485.09137 345.78354,484.91827 345.37112,484.57208 C344.95868,484.22583 344.75247,483.74503 344.75247,483.12955 L342.79065,483.12955 C342.79065,484.2346 343.15604,485.07562 343.8868,485.65262 C344.61755,486.22964 345.68225,486.51816 347.08084,486.51816 C348.4166,486.51816 349.46384,486.22266 350.22256,485.63165 C350.98132,485.04068 351.36072,484.2276 351.36072,483.19247 C351.36072,482.4511 351.1304,481.85663 350.66977,481.409 C350.20117,480.95438 349.43176,480.5802 348.36157,480.28647 L346.26318,479.71994 A1.912851,1.912851 0 0 1 345.33997,479.23737 C345.13715,479.02753 345.03574,478.76178 345.03574,478.44003 C345.03574,477.9994 345.22095,477.65668 345.59143,477.41193 C345.9619,477.1671 346.48264,477.0447 347.15363,477.0447 C347.80374,477.0447 348.3123,477.1916 348.67926,477.48532 C349.04623,477.77908 349.2297,478.18124 349.2297,478.6918 z" stroke="#000000" stroke-width="0.24" stroke-linecap="round" stroke-linejoin="round" fill="none" />
    <path d="M435.48816,454.81305 L452.21576,454.81305 L452.21576,453.7055 L452.21576,452.59796 L439.24652,452.59796 L439.24652,435.27896 L437.3576,435.27896 L435.48816,435.27896 z" stroke="#000000" stroke-width="0.24" stroke-linecap="round" stroke-linejoin="round" fill="none" />
    <path d="M412.7823,454.81305 L429.87985,454.81305 L429.87985,453.7055 L429.87985,452.59796 L416.54062,452.59796 L416.54062,445.86972 L429.02304,445.86972 L429.02304,444.76218 L429.02304,443.65466 L416.54062,443.65466 L416.54062,437.49402 L429.52933,437.49402 L429.52933,436.3865 L429.52933,435.27896 L412.7823,435.27896 z" stroke="#000000" stroke-width="0.24" stroke-linecap="round" stroke-linejoin="round" fill="none" />
    <path d="M389.979,454.81305 L407.0766,454.81305 L407.0766,453.7055 L407.0766,452.59796 L393.73734,452.59796 L393.73734,445.86972 L406.21976,445.86972 L406.21976,444.76218 L406.21976,443.65466 L393.73734,443.65466 L393.73734,437.49402 L406.72604,437.49402 L406.72604,436.3865 L406.72604,435.27896 L389.979,435.27896 z" stroke="#000000" stroke-width="0.24" stroke-linecap="round" stroke-linejoin="round" fill="none" />
    <path d="M372.0051,454.81305 L373.894,454.81305 L375.7635,454.81305 L375.7635,437.49402 L384.97437,437.49402 L384.97437,436.3865 L384.97437,435.27896 L362.79422,435.27896 L362.79422,436.3865 L362.79422,437.49402 L372.0051,437.49402 z" stroke="#000000" stroke-width="0.24" stroke-linecap="round" stroke-linejoin="round" fill="none" />
    <path d="M354.65347,440.16595 L358.47025,440.16595 C358.31442,438.44928 357.42197,437.14102 355.7928,436.24112 C354.16364,435.34128 351.87558,434.89133 348.9286,434.89133 C345.70923,434.89133 343.18433,435.3897 341.35394,436.3865 C339.52353,437.38327 338.60837,438.76306 338.60837,440.52588 C338.60837,441.88263 339.15076,442.95322 340.2356,443.73773 C341.3263,444.53143 343.10516,445.136 345.5722,445.5513 L351.1032,446.49274 C352.57043,446.74188 353.65466,447.09723 354.35587,447.55872 C355.07294,448.02017 355.4315,448.5924 355.4315,449.27536 C355.4315,450.45673 354.84988,451.37045 353.68665,452.0165 C352.5234,452.6626 350.87613,452.98563 348.7448,452.98563 C346.53543,452.98563 344.88483,452.6718 343.79312,452.04422 C342.7014,451.4166 342.12308,450.45215 342.05817,449.15076 L338.2998,449.15076 C338.55945,451.16278 339.56543,452.6741 341.31775,453.68472 C343.07,454.69534 345.54926,455.20065 348.7555,455.20065 C352.0136,455.20065 354.5675,454.65613 356.41718,453.56708 C358.2668,452.478 359.19168,450.9736 359.19168,449.0539 C359.19168,447.67868 358.62988,446.5896 357.50632,445.78668 C356.36325,444.9837 354.5059,444.36072 351.9342,443.9177 L346.40103,442.97632 C345.06326,442.74557 344.06958,442.4133 343.42007,441.97952 C342.758,441.54575 342.42694,440.9966 342.42694,440.33206 C342.42694,439.32605 342.99478,438.54617 344.1304,437.9924 C345.26605,437.43863 346.86575,437.16174 348.9295,437.16174 C350.56488,437.16174 351.90823,437.43863 352.9596,437.9924 C354.01093,438.54617 354.57556,439.2707 354.65347,440.16595 z" stroke="#000000" stroke-width="0.24" stroke-linecap="round" stroke-linejoin="round" fill="none" />
    <path d="M303.69266,454.81305 L303.69266,444.37457 L315.8218,454.81305 L318.31592,454.81305 L320.79022,454.81305 L307.78207,443.98694 L319.73868,435.27896 L317.32065,435.27896 L314.92206,435.27896 L303.69266,443.7654 L303.69266,435.27896 L301.80374,435.27896 L299.93433,435.27896 L299.93433,454.81305 L301.82324,454.81305 z" stroke="#000000" stroke-width="0.24" stroke-linecap="round" stroke-linejoin="round" fill="none" />
    <path d="M281.1611,437.7986 L275.917,447.50333 L286.4314,447.50333 z" stroke="#000000" stroke-width="0.24" stroke-linecap="round" stroke-linejoin="round" fill="none" />
    <path d="M267.8033,454.81305 L269.88727,454.81305 L271.97122,454.81305 L274.68045,449.71838 L287.62595,449.71838 L290.39786,454.81305 L292.43982,454.81305 L294.48178,454.81305 L283.2067,435.27896 L281.14255,435.27896 L279.07837,435.27896 z" stroke="#000000" stroke-width="0.24" stroke-linecap="round" stroke-linejoin="round" fill="none" />
    <path d="M456.1497,445.48715 L515.1365,445.48715 L515.1365,443.06253 L456.1497,443.06253 z" stroke="#000000" stroke-width="0.24" stroke-linecap="round" stroke-linejoin="round" fill="none" />
    <path d="M206.1803,445.48715 L265.1671,445.48715 L265.1671,443.06253 L206.1803,443.06253 z" stroke="#000000" stroke-width="0.24" stroke-linecap="round" stroke-linejoin="round" fill="none" />
    <path d="M272.5256,345.9342 L384.47354,345.9342 L418.4346,404.75647 L450.81888,386.05942 L321.1934,161.5415 L288.80914,180.23857 L362.88406,308.5401 L294.1151,308.5401 L325.0584,254.94475 L292.67413,236.24768 L206.1803,386.05942 L238.56456,404.75647 z" stroke="#000000" stroke-width="0.24" stroke-linecap="round" stroke-linejoin="round" fill="none" />
  </g>
</svg>